SplineFontDB: 3.2
FontName: YJemin
FullName: YJemin
FamilyName: YJemin
Weight: Regular
Copyright: Copyright (c) 2021, Zasok
UComments: "2021-5-25: Created with FontForge (http://fontforge.org)"
Version: 001.000
ItalicAngle: 0
UnderlinePosition: -166.7
UnderlineWidth: 83.35
Ascent: 1389
Descent: 278
InvalidEm: 0
LayerCount: 2
Layer: 0 0 "+gMyXYgAA" 1
Layer: 1 0 "+Uk2XYgAA" 0
XUID: [1021 287 1517047342 2599]
StyleMap: 0x0000
FSType: 0
OS2Version: 0
OS2_WeightWidthSlopeOnly: 0
OS2_UseTypoMetrics: 1
CreationTime: 1621943039
ModificationTime: 1622117475
OS2TypoAscent: 0
OS2TypoAOffset: 1
OS2TypoDescent: 0
OS2TypoDOffset: 1
OS2TypoLinegap: 150
OS2WinAscent: 0
OS2WinAOffset: 1
OS2WinDescent: 0
OS2WinDOffset: 1
HheadAscent: 0
HheadAOffset: 1
HheadDescent: 0
HheadDOffset: 1
OS2Vendor: 'PfEd'
MarkAttachClasses: 1
DEI: 91125
Encoding: ISO8859-1
UnicodeInterp: none
NameList: AGL For New Fonts
DisplaySize: -48
AntiAlias: 1
FitToEm: 0
WinInfo: 18 18 11
BeginPrivate: 0
EndPrivate
BeginChars: 256 92

StartChar: zero
Encoding: 48 48 0
Width: 1200
VWidth: 1198
Flags: HW
HStem: 0 192<192 768> 768 192<192 768>
VStem: 0 192<192 768> 768 192<192 768>
LayerCount: 2
Fore
SplineSet
0 960 m 1
 960 960 l 1
 960 0 l 1
 0 0 l 1
 0 960 l 1
768 192 m 1
 768 768 l 1
 192 768 l 1
 192 192 l 1
 768 192 l 1
EndSplineSet
EndChar

StartChar: one
Encoding: 49 49 1
Width: 1200
VWidth: 1198
Flags: HW
HStem: 0 192<0 384 576 960> 576 192<192 384> 940 20G<384 576> 940 20G<384 576>
VStem: 384 192<192 576 768 960>
LayerCount: 2
Fore
SplineSet
960 192 m 1xe8
 960 0 l 1
 0 0 l 1
 0 192 l 1
 384 192 l 1
 384 576 l 1
 192 576 l 1
 192 768 l 1
 384 768 l 1
 384 960 l 1
 576 960 l 1
 576 192 l 1
 960 192 l 1xe8
EndSplineSet
EndChar

StartChar: two
Encoding: 50 50 2
Width: 1200
VWidth: 1198
Flags: HW
HStem: 0 192<192 960> 384 192<192 768> 768 192<0 768>
VStem: 0 192<192 384> 768 192<576 768>
CounterMasks: 1 e0
LayerCount: 2
Fore
SplineSet
960 960 m 1
 960 384 l 1
 192 384 l 1
 192 192 l 1
 960 192 l 1
 960 0 l 1
 0 0 l 1
 0 576 l 1
 768 576 l 1
 768 768 l 1
 0 768 l 1
 0 960 l 1
 960 960 l 1
EndSplineSet
EndChar

StartChar: three
Encoding: 51 51 3
Width: 1200
VWidth: 1198
Flags: HW
HStem: 0 192<0 768> 384 192<0 768> 768 192<0 768>
VStem: 768 192<192 384 576 768>
CounterMasks: 1 e0
LayerCount: 2
Fore
SplineSet
960 960 m 1
 960 0 l 1
 0 0 l 1
 0 192 l 1
 768 192 l 1
 768 384 l 1
 0 384 l 1
 0 576 l 1
 768 576 l 1
 768 768 l 1
 0 768 l 1
 0 960 l 1
 960 960 l 1
EndSplineSet
EndChar

StartChar: four
Encoding: 52 52 4
Width: 1200
VWidth: 1198
Flags: HW
HStem: 0 21G<768 960> 384 192<192 768> 940 20G<0 192 768 960> 940 20G<0 192 768 960>
VStem: 0 192<576 960> 768 192<0 384 576 960>
LayerCount: 2
Fore
SplineSet
960 960 m 1xec
 960 0 l 1
 768 0 l 1
 768 384 l 1
 0 384 l 1
 0 960 l 1
 192 960 l 1
 192 576 l 1
 768 576 l 1
 768 960 l 1
 960 960 l 1xec
EndSplineSet
EndChar

StartChar: five
Encoding: 53 53 5
Width: 1200
VWidth: 1198
Flags: HW
HStem: 0 192<0 768> 384 192<192 768> 768 192<192 960>
VStem: 0 192<576 768> 768 192<192 384>
CounterMasks: 1 e0
LayerCount: 2
Fore
SplineSet
192 768 m 1
 192 576 l 1
 960 576 l 1
 960 0 l 1
 0 0 l 1
 0 192 l 1
 768 192 l 1
 768 384 l 1
 0 384 l 1
 0 960 l 1
 960 960 l 1
 960 768 l 1
 192 768 l 1
EndSplineSet
EndChar

StartChar: six
Encoding: 54 54 6
Width: 1200
VWidth: 1198
Flags: HW
HStem: 0 192<192 768> 384 192<192 768> 768 192<192 960>
VStem: 0 192<192 384 576 768> 768 192<192 384>
CounterMasks: 1 e0
LayerCount: 2
Fore
SplineSet
960 768 m 1
 192 768 l 1
 192 576 l 1
 960 576 l 1
 960 0 l 1
 0 0 l 1
 0 960 l 1
 960 960 l 1
 960 768 l 1
768 384 m 1
 192 384 l 1
 192 192 l 1
 768 192 l 1
 768 384 l 1
EndSplineSet
EndChar

StartChar: seven
Encoding: 55 55 7
Width: 1200
VWidth: 1198
Flags: HW
HStem: 0 21G<768 960> 384 192<384 768> 768 192<0 768>
VStem: 768 192<0 384 576 768>
LayerCount: 2
Fore
SplineSet
960 960 m 1
 960 0 l 1
 768 0 l 1
 768 384 l 1
 384 384 l 1
 384 576 l 1
 768 576 l 1
 768 768 l 1
 0 768 l 1
 0 960 l 1
 960 960 l 1
EndSplineSet
EndChar

StartChar: eight
Encoding: 56 56 8
Width: 1200
VWidth: 1198
Flags: HW
HStem: 0 192<192 768> 384 192<192 768> 768 192<192 768>
VStem: 0 192<192 384 576 768> 768 192<192 384 576 768>
CounterMasks: 1 e0
LayerCount: 2
Fore
SplineSet
0 960 m 1
 960 960 l 1
 960 0 l 1
 0 0 l 1
 0 960 l 1
768 192 m 1
 768 384 l 1
 192 384 l 1
 192 192 l 1
 768 192 l 1
768 576 m 1
 768 768 l 1
 192 768 l 1
 192 576 l 1
 768 576 l 1
EndSplineSet
EndChar

StartChar: nine
Encoding: 57 57 9
Width: 1200
VWidth: 1198
Flags: HW
HStem: 0 192<0 768> 384 192<192 768> 768 192<192 768>
VStem: 0 192<576 768> 768 192<192 384 576 768>
CounterMasks: 1 e0
LayerCount: 2
Fore
SplineSet
0 960 m 1
 960 960 l 1
 960 0 l 1
 0 0 l 1
 0 192 l 1
 768 192 l 1
 768 384 l 1
 0 384 l 1
 0 960 l 1
768 576 m 1
 768 768 l 1
 192 768 l 1
 192 576 l 1
 768 576 l 1
EndSplineSet
EndChar

StartChar: numbersign
Encoding: 35 35 10
Width: 1200
VWidth: 1198
Flags: HW
HStem: 0 21G<0 156> 384 192<520 960> 940 20G<0 156> 940 20G<0 156>
LayerCount: 2
Fore
SplineSet
248 384 m 1xe0
 344 480 l 1
 0 824 l 1
 0 960 l 1
 136 960 l 1
 328 768 l 1
 480 616 l 1
 520 576 l 1
 960 576 l 1
 960 384 l 1
 520 384 l 1
 480 344 l 1
 328 192 l 1
 136 0 l 1
 0 0 l 1
 0 136 l 1
 56 192 l 1
 248 384 l 1xe0
EndSplineSet
EndChar

StartChar: dollar
Encoding: 36 36 11
Width: 1200
VWidth: 1198
Flags: HW
HStem: 0 21G<384 576> 940 20G<0 156 804 960> 940 20G<0 156 804 960>
VStem: 384 192<0 440>
LayerCount: 2
Fore
SplineSet
384 712 m 1xd0
 480 616 l 1
 824 960 l 1
 960 960 l 1
 960 824 l 1
 768 632 l 1
 616 480 l 1
 576 440 l 1
 576 0 l 1
 384 0 l 1
 384 440 l 1
 344 480 l 1
 192 632 l 1
 0 824 l 1
 0 960 l 1
 136 960 l 1
 192 904 l 1
 384 712 l 1xd0
EndSplineSet
EndChar

StartChar: ampersand
Encoding: 38 38 12
Width: 717
VWidth: 1198
Flags: HW
HStem: 748 20G<228 520> 748 20G<228 520>
LayerCount: 2
Fore
SplineSet
232 480 m 1x80
 520 192 l 1
 248 192 l 1
 0 440 l 1
 0 520 l 1
 96 616 l 1
 248 768 l 1
 520 768 l 1
 232 480 l 1x80
EndSplineSet
EndChar

StartChar: parenleft
Encoding: 40 40 13
Width: 576
VWidth: 1198
Flags: HW
HStem: 0 192<192 384> 748 20G<0 192> 748 20G<0 192> 768 192<192 384>
VStem: 0 192<192 768> 192 192<0 192 768 960>
LayerCount: 2
Fore
SplineSet
0 192 m 1xc8
 0 768 l 1
 192 768 l 1
 192 192 l 1
 0 192 l 1xc8
192 0 m 1x84
 192 192 l 1x88
 384 192 l 1
 384 0 l 1
 192 0 l 1x84
192 768 m 1xc8
 192 960 l 1
 384 960 l 1
 384 768 l 1x94
 192 768 l 1xc8
EndSplineSet
EndChar

StartChar: parenright
Encoding: 41 41 14
Width: 576
VWidth: 1198
Flags: HW
HStem: 0 192<0 192> 748 20G<192 384> 748 20G<192 384> 768 192<0 192>
VStem: 0 192<0 192 768 960> 192 192<192 768>
LayerCount: 2
Fore
SplineSet
192 192 m 1xc8
 192 768 l 1xc8
 384 768 l 1
 384 192 l 1xc4
 192 192 l 1xc8
0 768 m 1x98
 0 960 l 1
 192 960 l 1x98
 192 768 l 1xc8
 0 768 l 1x98
0 0 m 1
 0 192 l 1
 192 192 l 1
 192 0 l 1
 0 0 l 1
EndSplineSet
EndChar

StartChar: comma
Encoding: 44 44 15
Width: 768
VWidth: 1198
Flags: HW
HStem: 748 20G<0 156> 748 20G<0 156>
LayerCount: 2
Fore
SplineSet
576 328 m 1x80
 576 192 l 1
 440 192 l 1
 56 576 l 1
 0 632 l 1
 0 768 l 1
 136 768 l 1
 576 328 l 1x80
EndSplineSet
EndChar

StartChar: period
Encoding: 46 46 16
Width: 768
VWidth: 1198
Flags: HW
HStem: 192 192<192 384> 576 192<192 384>
VStem: 0 192<384 576> 384 192<384 576>
LayerCount: 2
Fore
SplineSet
0 768 m 1
 576 768 l 1
 576 192 l 1
 0 192 l 1
 0 768 l 1
384 384 m 1
 384 576 l 1
 192 576 l 1
 192 384 l 1
 384 384 l 1
EndSplineSet
EndChar

StartChar: quotesingle
Encoding: 39 39 17
Width: 384
VWidth: 1198
Flags: HW
HStem: 576 384<0 192>
VStem: 0 192<576 960>
LayerCount: 2
Fore
SplineSet
0 576 m 5
 0 960 l 5
 192 960 l 5
 192 576 l 5
 0 576 l 5
EndSplineSet
EndChar

StartChar: hyphen
Encoding: 45 45 18
Width: 768
VWidth: 1198
Flags: HW
HStem: 384 192<0 576>
LayerCount: 2
Fore
SplineSet
0 384 m 1
 0 576 l 1
 576 576 l 1
 576 384 l 1
 0 384 l 1
EndSplineSet
EndChar

StartChar: semicolon
Encoding: 59 59 19
Width: 768
VWidth: 1198
Flags: HW
HStem: 192 192<0 192> 576 192<384 576>
VStem: 0 192<192 384> 384 192<576 768>
LayerCount: 2
Fore
SplineSet
0 192 m 1
 0 384 l 1
 192 384 l 1
 192 192 l 1
 0 192 l 1
384 576 m 1
 384 768 l 1
 576 768 l 1
 576 576 l 1
 384 576 l 1
EndSplineSet
EndChar

StartChar: at
Encoding: 64 64 20
Width: 1200
VWidth: 1198
Flags: HW
HStem: 0 21G<804 960> 384 192<0 440> 940 20G<804 960> 940 20G<804 960>
LayerCount: 2
Fore
SplineSet
712 576 m 1xe0
 616 480 l 1
 960 136 l 1
 960 0 l 1
 824 0 l 1
 632 192 l 1
 480 344 l 1
 440 384 l 1
 0 384 l 1
 0 576 l 1
 440 576 l 1
 480 616 l 1
 632 768 l 1
 824 960 l 1
 960 960 l 1
 960 824 l 1
 904 768 l 1
 712 576 l 1xe0
EndSplineSet
EndChar

StartChar: bracketleft
Encoding: 91 91 21
Width: 768
VWidth: 1198
Flags: HW
HStem: 0 21G<0 192> 768 192<192 576>
VStem: 0 192<0 768>
LayerCount: 2
Fore
SplineSet
576 960 m 1
 576 768 l 1
 192 768 l 1
 192 0 l 1
 0 0 l 1
 0 960 l 1
 576 960 l 1
EndSplineSet
EndChar

StartChar: braceleft
Encoding: 123 123 22
Width: 768
VWidth: 1198
Flags: HW
HStem: 0 192<192 576> 940 20G<0 192> 940 20G<0 192>
VStem: 0 192<192 960>
LayerCount: 2
Fore
SplineSet
576 192 m 1xd0
 576 0 l 1
 0 0 l 1
 0 960 l 1
 192 960 l 1
 192 192 l 1
 576 192 l 1xd0
EndSplineSet
EndChar

StartChar: plus
Encoding: 43 43 23
Width: 768
VWidth: 1198
Flags: HW
HStem: 384 192<0 192 384 576> 748 20G<192 384> 748 20G<192 384>
VStem: 192 192<192 384 576 768>
LayerCount: 2
Fore
SplineSet
576 576 m 1xd0
 576 384 l 1
 384 384 l 1
 384 192 l 1
 192 192 l 1
 192 384 l 1
 0 384 l 1
 0 576 l 1
 192 576 l 1
 192 768 l 1
 384 768 l 1
 384 576 l 1
 576 576 l 1xd0
EndSplineSet
EndChar

StartChar: equal
Encoding: 61 61 24
Width: 768
VWidth: 1198
Flags: HW
HStem: 192 192<0 576> 576 192<0 576>
LayerCount: 2
Fore
SplineSet
0 576 m 1
 0 768 l 1
 576 768 l 1
 576 576 l 1
 0 576 l 1
0 192 m 1
 0 384 l 1
 576 384 l 5
 576 192 l 5
 0 192 l 1
EndSplineSet
EndChar

StartChar: a
Encoding: 97 97 25
Width: 1200
VWidth: 1198
Flags: HW
HStem: 0 21G<768 960> 384 192<0 768> 940 20G<768 960> 940 20G<768 960>
VStem: 768 192<0 384 576 960>
LayerCount: 2
Fore
SplineSet
960 960 m 1xe8
 960 0 l 1
 768 0 l 1
 768 384 l 1
 0 384 l 1
 0 576 l 1
 768 576 l 1
 768 960 l 1
 960 960 l 1xe8
EndSplineSet
EndChar

StartChar: backslash
Encoding: 92 92 26
Width: 1200
VWidth: 1198
Flags: HW
HStem: 0 21G<804 960> 940 20G<0 156> 940 20G<0 156>
LayerCount: 2
Fore
SplineSet
960 136 m 1xc0
 960 0 l 1
 824 0 l 1
 768 57 l 1
 632 192 l 1
 248 576 l 1
 192 632 l 1
 56 768 l 1
 0 824 l 1
 0 960 l 1
 136 960 l 1
 192 904 l 1
 328 768 l 1
 384 712 l 1
 576 520 l 1
 712 384 l 1
 768 328 l 1
 960 136 l 1xc0
EndSplineSet
EndChar

StartChar: braceright
Encoding: 125 125 27
Width: 768
VWidth: 1198
Flags: HW
HStem: 0 21G<384 576> 768 192<0 384>
VStem: 384 192<0 768>
LayerCount: 2
Fore
SplineSet
576 960 m 1
 576 0 l 1
 384 0 l 1
 384 768 l 1
 0 768 l 1
 0 960 l 1
 576 960 l 1
EndSplineSet
EndChar

StartChar: bracketright
Encoding: 93 93 28
Width: 768
VWidth: 1198
Flags: HW
HStem: 0 192<0 384> 940 20G<384 576> 940 20G<384 576>
VStem: 384 192<192 960>
LayerCount: 2
Fore
SplineSet
576 960 m 1xd0
 576 0 l 1
 0 0 l 1
 0 192 l 1
 384 192 l 1
 384 960 l 1
 576 960 l 1xd0
EndSplineSet
EndChar

StartChar: c
Encoding: 99 99 29
Width: 1200
VWidth: 1198
Flags: HW
HStem: 0 21G<0 192 384 576 768 960> 556 20G<384 576 768 960> 556 20G<384 576 768 960> 768 192<192 960>
VStem: 0 192<0 768> 384 192<0 576> 768 192<0 576>
CounterMasks: 1 0e
LayerCount: 2
Fore
SplineSet
384 0 m 1xde
 384 576 l 1
 576 576 l 1
 576 0 l 1
 384 0 l 1xde
960 960 m 1
 960 768 l 1
 192 768 l 1
 192 0 l 1
 0 0 l 1
 0 960 l 1
 960 960 l 1
768 0 m 1
 768 576 l 1
 960 576 l 1
 960 0 l 1
 768 0 l 1
EndSplineSet
EndChar

StartChar: d
Encoding: 100 100 30
Width: 1200
VWidth: 1198
Flags: HW
HStem: 0 192<192 960> 384 21G<768 960> 940 20G<0 192 768 960> 940 20G<0 192 768 960>
VStem: 0 192<192 960> 768 192<384 960>
LayerCount: 2
Fore
SplineSet
960 192 m 1xec
 960 0 l 1
 0 0 l 1
 0 960 l 1
 192 960 l 1
 192 192 l 1
 960 192 l 1xec
768 384 m 1
 768 960 l 1
 960 960 l 1
 960 384 l 1
 768 384 l 1
EndSplineSet
EndChar

StartChar: e
Encoding: 101 101 31
Width: 1200
VWidth: 1198
Flags: HW
HStem: 0 192<0 960> 768 192<0 960>
LayerCount: 2
Fore
SplineSet
0 768 m 1
 0 960 l 1
 960 960 l 1
 960 768 l 1
 0 768 l 1
0 0 m 1
 0 192 l 1
 960 192 l 1
 960 0 l 1
 0 0 l 1
EndSplineSet
EndChar

StartChar: f
Encoding: 102 102 32
Width: 1200
VWidth: 1198
Flags: HW
HStem: 0 192<192 768> 940 20G<0 192 768 960> 940 20G<0 192 768 960>
VStem: 0 192<192 960> 768 192<192 960>
LayerCount: 2
Fore
SplineSet
960 960 m 1xd8
 960 0 l 1
 0 0 l 1
 0 960 l 1
 192 960 l 1
 192 192 l 1
 768 192 l 1
 768 960 l 1
 960 960 l 1xd8
EndSplineSet
EndChar

StartChar: g
Encoding: 103 103 33
Width: 1200
VWidth: 1198
Flags: HW
HStem: 0 21G<768 960> 768 192<0 768>
VStem: 768 192<0 768>
LayerCount: 2
Fore
SplineSet
960 960 m 1
 960 0 l 1
 768 0 l 1
 768 768 l 1
 0 768 l 1
 0 960 l 1
 960 960 l 1
EndSplineSet
EndChar

StartChar: h
Encoding: 104 104 34
Width: 1200
VWidth: 1198
Flags: HW
HStem: 0 21G<0 156 768 960> 940 20G<0 192 804 960> 940 20G<0 192 804 960>
VStem: 0 192<328 960> 768 192<0 632>
LayerCount: 2
Fore
SplineSet
960 960 m 1xd8
 960 0 l 1
 768 0 l 1
 768 632 l 1
 192 56 l 1
 136 0 l 1
 0 0 l 1
 0 960 l 1
 192 960 l 1
 192 328 l 1
 824 960 l 1
 960 960 l 1xd8
EndSplineSet
EndChar

StartChar: i
Encoding: 105 105 35
Width: 1200
VWidth: 1198
Flags: HW
HStem: 384 192<0 960>
LayerCount: 2
Fore
SplineSet
0 384 m 1
 0 576 l 1
 960 576 l 1
 960 384 l 1
 0 384 l 1
EndSplineSet
EndChar

StartChar: k
Encoding: 107 107 36
Width: 1200
VWidth: 1198
Flags: HW
HStem: 0 21G<0 192 384 576 768 960> 556 20G<0 192 384 576> 556 20G<0 192 384 576> 768 192<0 768>
VStem: 0 192<0 576> 384 192<0 576> 768 192<0 768>
CounterMasks: 1 0e
LayerCount: 2
Fore
SplineSet
960 960 m 1x9e
 960 0 l 1
 768 0 l 1
 768 768 l 1
 0 768 l 1
 0 960 l 1
 960 960 l 1x9e
0 0 m 1
 0 576 l 1
 192 576 l 1xde
 192 0 l 1
 0 0 l 1
384 0 m 1
 384 576 l 1
 576 576 l 1
 576 0 l 1
 384 0 l 1
EndSplineSet
EndChar

StartChar: l
Encoding: 108 108 37
Width: 1200
VWidth: 1198
Flags: HW
HStem: 0 192<192 960> 768 192<384 960>
VStem: 0 192<192 960>
LayerCount: 2
Fore
SplineSet
960 192 m 1
 960 0 l 1
 0 0 l 1
 0 960 l 1
 192 960 l 1
 192 192 l 1
 960 192 l 1
384 768 m 1
 384 960 l 1
 960 960 l 1
 960 768 l 1
 384 768 l 1
EndSplineSet
EndChar

StartChar: m
Encoding: 109 109 38
Width: 1200
VWidth: 1198
Flags: HW
HStem: 0 192<0 768> 940 20G<768 960> 940 20G<768 960>
VStem: 768 192<192 960>
LayerCount: 2
Fore
SplineSet
960 960 m 1xd0
 960 0 l 1
 0 0 l 1
 0 192 l 1
 768 192 l 1
 768 960 l 1
 960 960 l 1xd0
EndSplineSet
EndChar

StartChar: n
Encoding: 110 110 39
Width: 1200
VWidth: 1198
Flags: HW
HStem: 0 192<192 960> 940 20G<0 192> 940 20G<0 192>
VStem: 0 192<192 960>
LayerCount: 2
Fore
SplineSet
960 192 m 1xd0
 960 0 l 1
 0 0 l 1
 0 960 l 1
 192 960 l 1
 192 192 l 1
 960 192 l 1xd0
EndSplineSet
EndChar

StartChar: o
Encoding: 111 111 40
Width: 1200
VWidth: 1198
Flags: HW
HStem: 0 21G<384 576> 768 192<0 384 576 960>
VStem: 384 192<0 768>
LayerCount: 2
Fore
SplineSet
960 960 m 1
 960 768 l 1
 576 768 l 1
 576 0 l 1
 384 0 l 1
 384 768 l 1
 0 768 l 1
 0 960 l 1
 960 960 l 1
EndSplineSet
EndChar

StartChar: p
Encoding: 112 112 41
Width: 1200
VWidth: 1198
Flags: HW
HStem: 0 192<0 768> 384 21G<0 192 384 576> 940 20G<0 192 384 576 768 960> 940 20G<0 192 384 576 768 960>
VStem: 0 192<384 960> 384 192<384 960> 768 192<192 960>
CounterMasks: 1 0e
LayerCount: 2
Fore
SplineSet
0 384 m 1xee
 0 960 l 1
 192 960 l 1
 192 384 l 1
 0 384 l 1xee
384 384 m 1
 384 960 l 1
 576 960 l 1
 576 384 l 1
 384 384 l 1
960 960 m 1
 960 0 l 1
 0 0 l 1
 0 192 l 1
 768 192 l 1
 768 960 l 1
 960 960 l 1
EndSplineSet
EndChar

StartChar: q
Encoding: 113 113 42
Width: 1200
VWidth: 1198
Flags: HW
HStem: 0 21G<0 192 384 576 768 960> 556 20G<0 192 384 576> 556 20G<0 192 384 576> 768 192<0 768>
VStem: 0 192<0 576> 384 192<0 576> 768 192<0 768>
CounterMasks: 1 0e
LayerCount: 2
Fore
SplineSet
960 960 m 1x9e
 960 0 l 1
 768 0 l 1
 768 768 l 1
 0 768 l 1
 0 960 l 1
 960 960 l 1x9e
0 0 m 1
 0 576 l 1
 192 576 l 1xde
 192 0 l 1
 0 0 l 1
384 0 m 1
 384 576 l 1
 576 576 l 1
 576 0 l 1
 384 0 l 1
EndSplineSet
EndChar

StartChar: r
Encoding: 114 114 43
Width: 1200
VWidth: 1198
Flags: HW
HStem: 0 21G<0 156> 768 192<0 632>
LayerCount: 2
Fore
SplineSet
960 960 m 1
 960 824 l 1
 903 768 l 1
 328 192 l 1
 136 0 l 1
 0 0 l 1
 0 136 l 1
 56 192 l 1
 632 768 l 1
 0 768 l 1
 0 960 l 1
 960 960 l 1
EndSplineSet
EndChar

StartChar: s
Encoding: 115 115 44
Width: 1200
VWidth: 1198
Flags: HW
HStem: 0 21G<0 192> 768 192<192 960>
VStem: 0 192<0 768>
LayerCount: 2
Fore
SplineSet
960 960 m 1
 960 768 l 1
 192 768 l 1
 192 0 l 1
 0 0 l 1
 0 960 l 1
 960 960 l 1
EndSplineSet
EndChar

StartChar: t
Encoding: 116 116 45
Width: 1200
VWidth: 1198
Flags: HW
HStem: 0 192<192 960> 384 21G<384 576 768 960> 940 20G<0 192 384 576 768 960> 940 20G<0 192 384 576 768 960>
VStem: 0 192<192 960> 384 192<384 960> 768 192<384 960>
CounterMasks: 1 0e
LayerCount: 2
Fore
SplineSet
960 192 m 1xee
 960 0 l 1
 0 0 l 1
 0 960 l 1
 192 960 l 1
 192 192 l 1
 960 192 l 1xee
384 384 m 1
 384 960 l 1
 576 960 l 1
 576 384 l 1
 384 384 l 1
768 384 m 1
 768 960 l 1
 960 960 l 1
 960 384 l 1
 768 384 l 1
EndSplineSet
EndChar

StartChar: u
Encoding: 117 117 46
Width: 1200
VWidth: 1198
Flags: HW
HStem: 0 192<0 384 576 960> 940 20G<384 576> 940 20G<384 576>
VStem: 384 192<192 960>
LayerCount: 2
Fore
SplineSet
960 192 m 1xd0
 960 0 l 1
 0 0 l 1
 0 192 l 1
 384 192 l 1
 384 960 l 1
 576 960 l 1
 576 192 l 1
 960 192 l 1xd0
EndSplineSet
EndChar

StartChar: v
Encoding: 118 118 47
Width: 1200
VWidth: 1198
Flags: HW
HStem: 0 192<0 768> 384 21G<0 192> 940 20G<0 192 768 960> 940 20G<0 192 768 960>
VStem: 0 192<384 960> 768 192<192 960>
LayerCount: 2
Fore
SplineSet
0 384 m 1xec
 0 960 l 1
 192 960 l 1
 192 384 l 1
 0 384 l 1xec
960 960 m 1
 960 0 l 1
 0 0 l 1
 0 192 l 1
 768 192 l 1
 768 960 l 1
 960 960 l 1
EndSplineSet
EndChar

StartChar: x
Encoding: 120 120 48
Width: 384
VWidth: 1198
Flags: HW
HStem: 384 192<0 192>
VStem: 0 192<384 576>
LayerCount: 2
Fore
SplineSet
0 384 m 1
 0 576 l 1
 192 576 l 1
 192 384 l 1
 0 384 l 1
EndSplineSet
EndChar

StartChar: z
Encoding: 122 122 49
Width: 1200
VWidth: 1198
Flags: HW
HStem: 0 21G<0 192 768 960> 556 20G<768 960> 556 20G<768 960> 768 192<192 960>
VStem: 0 192<0 768> 768 192<0 576>
LayerCount: 2
Fore
SplineSet
960 960 m 1x9c
 960 768 l 1
 192 768 l 1
 192 0 l 1
 0 0 l 1
 0 960 l 1
 960 960 l 1x9c
768 0 m 1
 768 576 l 1
 960 576 l 1xdc
 960 0 l 1
 768 0 l 1
EndSplineSet
EndChar

StartChar: bar
Encoding: 124 124 50
Width: 384
VWidth: 1198
Flags: HW
HStem: 0 21G<0 192> 940 20G<0 192> 940 20G<0 192>
VStem: 0 192<0 960>
LayerCount: 2
Fore
SplineSet
0 0 m 1xd0
 0 960 l 1
 192 960 l 1
 192 0 l 1
 0 0 l 1xd0
EndSplineSet
EndChar

StartChar: asciitilde
Encoding: 126 126 51
Width: 1200
VWidth: 1198
Flags: HW
HStem: 0 21G<0 960> 940 20G<374 586> 940 20G<374 586>
LayerCount: 2
Fore
SplineSet
0 182 m 5xc0
 384 960 l 5
 576 960 l 5
 960 192 l 5
 960 0 l 5
 0 0 l 5
 0 182 l 5xc0
EndSplineSet
EndChar

StartChar: grave
Encoding: 96 96 52
Width: 1200
VWidth: 1198
Flags: HW
HStem: 0 21G<0 960> 940 20G<374 586> 940 20G<374 586>
LayerCount: 2
Fore
SplineSet
0 182 m 1xc0
 384 960 l 1
 576 960 l 1
 960 192 l 1
 960 0 l 1
 0 0 l 1
 0 182 l 1xc0
EndSplineSet
EndChar

StartChar: less
Encoding: 60 60 53
Width: 1200
VWidth: 1198
Flags: HW
HStem: 384 21G<768 960> 768 192<0 768>
VStem: 768 192<384 768>
LayerCount: 2
Fore
SplineSet
960 960 m 1
 960 384 l 1
 768 384 l 1
 768 768 l 1
 0 768 l 1
 0 960 l 1
 960 960 l 1
EndSplineSet
EndChar

StartChar: greater
Encoding: 62 62 54
Width: 1200
VWidth: 1198
Flags: HW
HStem: 0 192<192 960> 556 20G<0 192> 556 20G<0 192>
VStem: 0 192<192 576>
LayerCount: 2
Fore
SplineSet
960 192 m 1xd0
 960 0 l 1
 0 0 l 1
 0 576 l 1
 192 576 l 1
 192 192 l 1
 960 192 l 1xd0
EndSplineSet
EndChar

StartChar: question
Encoding: 63 63 55
Width: 768
VWidth: 1198
Flags: HW
HStem: 0 192<192 384> 384 192<192 384> 768 192<0 384>
VStem: 192 192<0 192> 384 192<576 768>
CounterMasks: 1 e0
LayerCount: 2
Fore
SplineSet
576 960 m 1xe8
 576 384 l 1xe8
 192 384 l 1
 192 576 l 1xf0
 384 576 l 1
 384 768 l 1
 0 768 l 1
 0 960 l 1
 576 960 l 1xe8
192 0 m 1xf0
 192 192 l 1
 384 192 l 1
 384 0 l 1
 192 0 l 1xf0
EndSplineSet
EndChar

StartChar: R
Encoding: 82 82 56
Width: 1200
VWidth: 1198
Flags: HW
HStem: 0 192<328 960> 940 20G<804 960> 940 20G<804 960>
LayerCount: 2
Fore
SplineSet
904 768 m 1xc0
 328 192 l 1
 960 192 l 1
 960 0 l 1
 0 0 l 1
 0 136 l 1
 56 192 l 1
 824 960 l 1
 960 960 l 1
 960 824 l 1
 904 768 l 1xc0
EndSplineSet
EndChar

StartChar: exclam
Encoding: 33 33 58
Width: 384
VWidth: 1198
Flags: HW
HStem: 0 192<0 192> 384 21G<0 192> 940 20G<0 192> 940 20G<0 192>
VStem: 0 192<0 192 384 960>
LayerCount: 2
Fore
SplineSet
0 384 m 1xe8
 0 960 l 1
 192 960 l 1
 192 384 l 1
 0 384 l 1xe8
0 0 m 1
 0 192 l 1
 192 192 l 1
 192 0 l 1
 0 0 l 1
EndSplineSet
EndChar

StartChar: quotedbl
Encoding: 34 34 59
Width: 768
VWidth: 1198
Flags: HW
HStem: 576 384<0 192 384 576>
VStem: 0 192<576 960> 384 192<576 960>
LayerCount: 2
Fore
SplineSet
0 576 m 1
 0 960 l 1
 192 960 l 1
 192 576 l 1
 0 576 l 1
384 576 m 1
 384 960 l 1
 576 960 l 1
 576 576 l 1
 384 576 l 1
EndSplineSet
EndChar

StartChar: asterisk
Encoding: 42 42 60
Width: 720
VWidth: 1198
Flags: HW
HStem: 748 20G<0 291> 748 20G<0 291>
LayerCount: 2
Fore
SplineSet
288 480 m 1x80
 0 768 l 1
 271 768 l 1
 520 520 l 1
 520 440 l 1
 423 344 l 1
 271 192 l 1
 0 192 l 1
 288 480 l 1x80
EndSplineSet
EndChar

StartChar: A
Encoding: 65 65 61
Width: 1200
VWidth: 1198
Flags: HW
HStem: 0 21G<768 960> 384 192<0 768> 940 20G<768 960> 940 20G<768 960>
VStem: 768 192<0 384 576 960>
LayerCount: 2
Fore
SplineSet
960 960 m 5xe8
 960 0 l 5
 768 0 l 5
 768 384 l 5
 0 384 l 5
 0 576 l 5
 768 576 l 5
 768 960 l 5
 960 960 l 5xe8
EndSplineSet
EndChar

StartChar: b
Encoding: 98 98 62
Width: 1200
VWidth: 1198
Flags: HW
HStem: 0 192<0 768> 384 21G<0 192> 940 20G<0 192 768 960> 940 20G<0 192 768 960>
VStem: 0 192<384 960> 768 192<192 960>
LayerCount: 2
Fore
SplineSet
0 384 m 5xec
 0 960 l 5
 192 960 l 5
 192 384 l 5
 0 384 l 5xec
960 960 m 5
 960 0 l 5
 0 0 l 5
 0 192 l 5
 768 192 l 5
 768 960 l 5
 960 960 l 5
EndSplineSet
EndChar

StartChar: B
Encoding: 66 66 63
Width: 1200
VWidth: 1198
Flags: HW
HStem: 0 192<0 768> 384 21G<0 192> 940 20G<0 192 768 960> 940 20G<0 192 768 960>
VStem: 0 192<384 960> 768 192<192 960>
LayerCount: 2
Fore
SplineSet
0 384 m 5xec
 0 960 l 5
 192 960 l 5
 192 384 l 5
 0 384 l 5xec
960 960 m 5
 960 0 l 5
 0 0 l 5
 0 192 l 5
 768 192 l 5
 768 960 l 5
 960 960 l 5
EndSplineSet
EndChar

StartChar: V
Encoding: 86 86 64
Width: 1200
VWidth: 1198
Flags: HW
HStem: 0 192<0 768> 384 21G<0 192> 940 20G<0 192 768 960> 940 20G<0 192 768 960>
VStem: 0 192<384 960> 768 192<192 960>
LayerCount: 2
Fore
SplineSet
0 384 m 5xec
 0 960 l 5
 192 960 l 5
 192 384 l 5
 0 384 l 5xec
960 960 m 5
 960 0 l 5
 0 0 l 5
 0 192 l 5
 768 192 l 5
 768 960 l 5
 960 960 l 5
EndSplineSet
EndChar

StartChar: C
Encoding: 67 67 65
Width: 1200
VWidth: 1198
Flags: HW
HStem: 0 21G<0 192 384 576 768 960> 556 20G<384 576 768 960> 556 20G<384 576 768 960> 768 192<192 960>
VStem: 0 192<0 768> 384 192<0 576> 768 192<0 576>
CounterMasks: 1 0e
LayerCount: 2
Fore
SplineSet
384 0 m 5xde
 384 576 l 5
 576 576 l 5
 576 0 l 5
 384 0 l 5xde
960 960 m 5
 960 768 l 5
 192 768 l 5
 192 0 l 5
 0 0 l 5
 0 960 l 5
 960 960 l 5
768 0 m 5
 768 576 l 5
 960 576 l 5
 960 0 l 5
 768 0 l 5
EndSplineSet
EndChar

StartChar: D
Encoding: 68 68 66
Width: 1200
VWidth: 1198
Flags: HW
HStem: 0 192<192 960> 384 21G<768 960> 940 20G<0 192 768 960> 940 20G<0 192 768 960>
VStem: 0 192<192 960> 768 192<384 960>
LayerCount: 2
Fore
SplineSet
960 192 m 5xec
 960 0 l 5
 0 0 l 5
 0 960 l 5
 192 960 l 5
 192 192 l 5
 960 192 l 5xec
768 384 m 5
 768 960 l 5
 960 960 l 5
 960 384 l 5
 768 384 l 5
EndSplineSet
EndChar

StartChar: E
Encoding: 69 69 67
Width: 1200
VWidth: 1198
Flags: HW
HStem: 0 192<0 384 576 960> 768 192<0 384 576 960>
VStem: 384 192<192 768>
LayerCount: 2
Fore
SplineSet
576 192 m 1
 960 192 l 1
 960 0 l 1
 0 0 l 1
 0 192 l 1
 384 192 l 1
 384 768 l 1
 0 768 l 1
 0 960 l 1
 960 960 l 1
 960 768 l 1
 576 768 l 1
 576 192 l 1
EndSplineSet
EndChar

StartChar: F
Encoding: 70 70 68
Width: 1200
VWidth: 1199
Flags: HW
HStem: 0 192<192 768> 940 20G<0 192 768 960> 940 20G<0 192 768 960>
VStem: 0 192<192 960> 768 192<192 960>
LayerCount: 2
Fore
SplineSet
960 960 m 5xd8
 960 0 l 5
 0 0 l 5
 0 960 l 5
 192 960 l 5
 192 192 l 5
 768 192 l 5
 768 960 l 5
 960 960 l 5xd8
EndSplineSet
EndChar

StartChar: G
Encoding: 71 71 69
Width: 1200
VWidth: 1198
Flags: HW
HStem: 0 21G<768 960> 768 192<0 768>
VStem: 768 192<0 768>
LayerCount: 2
Fore
SplineSet
960 960 m 5
 960 0 l 5
 768 0 l 5
 768 768 l 5
 0 768 l 5
 0 960 l 5
 960 960 l 5
EndSplineSet
EndChar

StartChar: H
Encoding: 72 72 70
Width: 1200
VWidth: 1198
Flags: HW
HStem: 0 21G<0 156 768 960> 940 20G<0 192 804 960> 940 20G<0 192 804 960>
VStem: 0 192<328 960> 768 192<0 632>
LayerCount: 2
Fore
SplineSet
960 960 m 5xd8
 960 0 l 5
 768 0 l 5
 768 632 l 5
 192 56 l 5
 136 0 l 5
 0 0 l 5
 0 960 l 5
 192 960 l 5
 192 328 l 5
 824 960 l 5
 960 960 l 5xd8
EndSplineSet
EndChar

StartChar: I
Encoding: 73 73 71
Width: 1200
VWidth: 1198
Flags: HW
HStem: 384 192<0 960>
LayerCount: 2
Fore
SplineSet
0 384 m 5
 0 576 l 5
 960 576 l 5
 960 384 l 5
 0 384 l 5
EndSplineSet
EndChar

StartChar: J
Encoding: 74 74 72
Width: 1200
VWidth: 1198
Flags: HW
HStem: 0 21G<0 192 768 960> 556 20G<768 960> 556 20G<768 960> 768 192<192 960>
VStem: 0 192<0 768> 768 192<0 576>
LayerCount: 2
Fore
SplineSet
960 960 m 5x9c
 960 768 l 5
 192 768 l 5
 192 0 l 5
 0 0 l 5
 0 960 l 5
 960 960 l 5x9c
768 0 m 5
 768 576 l 5
 960 576 l 5xdc
 960 0 l 5
 768 0 l 5
EndSplineSet
EndChar

StartChar: j
Encoding: 106 106 73
Width: 1200
VWidth: 1198
Flags: HW
HStem: 0 21G<0 192 768 960> 556 20G<768 960> 556 20G<768 960> 768 192<192 960>
VStem: 0 192<0 768> 768 192<0 576>
LayerCount: 2
Fore
SplineSet
960 960 m 5x9c
 960 768 l 5
 192 768 l 5
 192 0 l 5
 0 0 l 5
 0 960 l 5
 960 960 l 5x9c
768 0 m 5
 768 576 l 5
 960 576 l 5xdc
 960 0 l 5
 768 0 l 5
EndSplineSet
EndChar

StartChar: Z
Encoding: 90 90 74
Width: 1200
VWidth: 1198
Flags: HW
HStem: 0 21G<0 192 768 960> 556 20G<768 960> 556 20G<768 960> 768 192<192 960>
VStem: 0 192<0 768> 768 192<0 576>
LayerCount: 2
Fore
SplineSet
960 960 m 5x9c
 960 768 l 5
 192 768 l 5
 192 0 l 5
 0 0 l 5
 0 960 l 5
 960 960 l 5x9c
768 0 m 5
 768 576 l 5
 960 576 l 5xdc
 960 0 l 5
 768 0 l 5
EndSplineSet
EndChar

StartChar: K
Encoding: 75 75 75
Width: 1200
VWidth: 1198
Flags: HW
HStem: 0 21G<0 192 384 576 768 960> 556 20G<0 192 384 576> 556 20G<0 192 384 576> 768 192<0 768>
VStem: 0 192<0 576> 384 192<0 576> 768 192<0 768>
CounterMasks: 1 0e
LayerCount: 2
Fore
SplineSet
960 960 m 5x9e
 960 0 l 5
 768 0 l 5
 768 768 l 5
 0 768 l 5
 0 960 l 5
 960 960 l 5x9e
0 0 m 5
 0 576 l 5
 192 576 l 5xde
 192 0 l 5
 0 0 l 5
384 0 m 5
 384 576 l 5
 576 576 l 5
 576 0 l 5
 384 0 l 5
EndSplineSet
EndChar

StartChar: L
Encoding: 76 76 76
Width: 1200
VWidth: 1198
Flags: HW
HStem: 0 192<192 960> 768 192<384 960>
VStem: 0 192<192 960>
LayerCount: 2
Fore
SplineSet
960 192 m 5
 960 0 l 5
 0 0 l 5
 0 960 l 5
 192 960 l 5
 192 192 l 5
 960 192 l 5
384 768 m 5
 384 960 l 5
 960 960 l 5
 960 768 l 5
 384 768 l 5
EndSplineSet
EndChar

StartChar: M
Encoding: 77 77 77
Width: 1200
VWidth: 1198
Flags: HW
HStem: 0 192<0 768> 940 20G<768 960> 940 20G<768 960>
VStem: 768 192<192 960>
LayerCount: 2
Fore
SplineSet
960 960 m 5xd0
 960 0 l 5
 0 0 l 5
 0 192 l 5
 768 192 l 5
 768 960 l 5
 960 960 l 5xd0
EndSplineSet
EndChar

StartChar: N
Encoding: 78 78 78
Width: 1200
VWidth: 1198
Flags: HW
HStem: 0 192<192 960> 940 20G<0 192> 940 20G<0 192>
VStem: 0 192<192 960>
LayerCount: 2
Fore
SplineSet
960 192 m 5xd0
 960 0 l 5
 0 0 l 5
 0 960 l 5
 192 960 l 5
 192 192 l 5
 960 192 l 5xd0
EndSplineSet
EndChar

StartChar: O
Encoding: 79 79 79
Width: 1200
VWidth: 1198
Flags: HW
HStem: 0 21G<384 576> 768 192<0 384 576 960>
VStem: 384 192<0 768>
LayerCount: 2
Fore
SplineSet
960 960 m 5
 960 768 l 5
 576 768 l 5
 576 0 l 5
 384 0 l 5
 384 768 l 5
 0 768 l 5
 0 960 l 5
 960 960 l 5
EndSplineSet
EndChar

StartChar: P
Encoding: 80 80 80
Width: 1200
VWidth: 1198
Flags: HW
HStem: 0 192<0 768> 384 21G<0 192 384 576> 940 20G<0 192 384 576 768 960> 940 20G<0 192 384 576 768 960>
VStem: 0 192<384 960> 384 192<384 960> 768 192<192 960>
CounterMasks: 1 0e
LayerCount: 2
Fore
SplineSet
0 384 m 5xee
 0 960 l 5
 192 960 l 5
 192 384 l 5
 0 384 l 5xee
384 384 m 5
 384 960 l 5
 576 960 l 5
 576 384 l 5
 384 384 l 5
960 960 m 5
 960 0 l 5
 0 0 l 5
 0 192 l 5
 768 192 l 5
 768 960 l 5
 960 960 l 5
EndSplineSet
EndChar

StartChar: Q
Encoding: 81 81 81
Width: 1200
VWidth: 1198
Flags: HW
HStem: 0 21G<0 192 384 576 768 960> 556 20G<0 192 384 576> 556 20G<0 192 384 576> 768 192<0 768>
VStem: 0 192<0 576> 384 192<0 576> 768 192<0 768>
CounterMasks: 1 0e
LayerCount: 2
Fore
SplineSet
960 960 m 5x9e
 960 0 l 5
 768 0 l 5
 768 768 l 5
 0 768 l 5
 0 960 l 5
 960 960 l 5x9e
0 0 m 5
 0 576 l 5
 192 576 l 5xde
 192 0 l 5
 0 0 l 5
384 0 m 5
 384 576 l 5
 576 576 l 5
 576 0 l 5
 384 0 l 5
EndSplineSet
EndChar

StartChar: S
Encoding: 83 83 82
Width: 1200
VWidth: 1198
Flags: HW
HStem: 0 192<384 960> 768 192<192 960>
VStem: 0 192<0 768>
LayerCount: 2
Fore
SplineSet
960 960 m 1
 960 768 l 1
 192 768 l 1
 192 0 l 1
 0 0 l 1
 0 960 l 1
 960 960 l 1
384 0 m 1
 384 192 l 1
 960 192 l 1
 960 0 l 1
 384 0 l 1
EndSplineSet
EndChar

StartChar: U
Encoding: 85 85 83
Width: 1200
VWidth: 1198
Flags: HW
HStem: 0 21G<0 192> 384 192<192 960> 940 20G<0 192> 940 20G<0 192>
VStem: 0 192<0 384 576 960>
LayerCount: 2
Fore
SplineSet
960 576 m 1xe8
 960 384 l 1
 192 384 l 1
 192 0 l 1
 0 0 l 1
 0 960 l 1
 192 960 l 1
 192 576 l 1
 960 576 l 1xe8
EndSplineSet
EndChar

StartChar: T
Encoding: 84 84 84
Width: 999
VWidth: 999
Flags: HW
HStem: 0 160<160 800> 780 20G<0 160 320 480 640 800> 780 20G<0 160 320 480 640 800>
VStem: 0 160<160 800> 320 160<320 800> 640 160<320 800>
CounterMasks: 1 1c
LayerCount: 2
Fore
SplineSet
800 160 m 5xdc
 800 0 l 5
 0 0 l 5
 0 800 l 5
 160 800 l 5
 160 160 l 5
 800 160 l 5xdc
320 320 m 5
 320 800 l 5
 480 800 l 5
 480 320 l 5
 320 320 l 5
640 320 m 5
 640 800 l 5
 800 800 l 5
 800 320 l 5
 640 320 l 5
EndSplineSet
EndChar

StartChar: w
Encoding: 119 119 85
Width: 1200
VWidth: 1198
Flags: HW
HStem: 0 192<0 384 576 960> 940 20G<384 576> 940 20G<384 576>
VStem: 384 192<192 960>
LayerCount: 2
Fore
SplineSet
960 192 m 5xd0
 960 0 l 5
 0 0 l 5
 0 192 l 5
 384 192 l 5
 384 960 l 5
 576 960 l 5
 576 192 l 5
 960 192 l 5xd0
EndSplineSet
EndChar

StartChar: W
Encoding: 87 87 86
Width: 1200
VWidth: 1198
Flags: HW
HStem: 0 192<0 384 576 960> 940 20G<384 576> 940 20G<384 576>
VStem: 384 192<192 960>
LayerCount: 2
Fore
SplineSet
960 192 m 5xd0
 960 0 l 5
 0 0 l 5
 0 192 l 5
 384 192 l 5
 384 960 l 5
 576 960 l 5
 576 192 l 5
 960 192 l 5xd0
EndSplineSet
EndChar

StartChar: X
Encoding: 88 88 87
Width: 384
VWidth: 1198
Flags: HW
HStem: 384 192<0 192>
VStem: 0 192<384 576>
LayerCount: 2
Fore
SplineSet
0 384 m 5
 0 576 l 5
 192 576 l 5
 192 384 l 5
 0 384 l 5
EndSplineSet
EndChar

StartChar: Y
Encoding: 89 89 88
Width: 1200
VWidth: 1198
Flags: HW
HStem: 384 192<0 960>
LayerCount: 2
Fore
SplineSet
0 384 m 5
 0 576 l 5
 960 576 l 5
 960 384 l 5
 0 384 l 5
EndSplineSet
EndChar

StartChar: slash
Encoding: 47 47 89
Width: 1200
VWidth: 1198
Flags: HW
HStem: 0 21G<0 156> 940 20G<805 960> 940 20G<805 960>
LayerCount: 2
Fore
SplineSet
136 0 m 1xc0
 0 0 l 1
 0 135 l 1
 57 192 l 1
 192 327 l 1
 576 712 l 1
 633 768 l 1
 768 904 l 1
 825 960 l 1
 960 960 l 1
 960 824 l 1
 904 768 l 1
 768 632 l 1
 712 576 l 1
 520 384 l 1
 384 248 l 1
 328 192 l 1
 136 0 l 1xc0
EndSplineSet
EndChar

StartChar: colon
Encoding: 58 58 90
Width: 768
VWidth: 1198
Flags: HW
HStem: 192 192<0 192> 576 192<384 576>
VStem: 0 192<192 384> 384 192<576 768>
LayerCount: 2
Fore
SplineSet
0 192 m 5
 0 384 l 5
 192 384 l 5
 192 192 l 5
 0 192 l 5
384 576 m 5
 384 768 l 5
 576 768 l 5
 576 576 l 5
 384 576 l 5
EndSplineSet
EndChar

StartChar: y
Encoding: 121 121 91
Width: 1200
VWidth: 1198
Flags: HWO
LayerCount: 2
Fore
SplineSet
0 384 m 5
 0 576 l 5
 960 576 l 5
 960 384 l 5
 0 384 l 5
EndSplineSet
EndChar
